<svg width="30" height="30" viewBox="0 0 40 40" fill="none" xmlns="http://www.w3.org/2000/svg">
<path d="M17.6666 27.6667L29.4166 15.9167L27.0833 13.5834L17.6666 23L12.9166 18.25L10.5833 20.5834L17.6666 27.6667ZM19.9999 36.6667C17.6944 36.6667 15.5277 36.2289 13.4999 35.3534C11.4721 34.4789 9.70825 33.2917 8.20825 31.7917C6.70825 30.2917 5.52103 28.5278 4.64659 26.5C3.77103 24.4723 3.33325 22.3056 3.33325 20C3.33325 17.6945 3.77103 15.5278 4.64659 13.5C5.52103 11.4723 6.70825 9.70837 8.20825 8.20837C9.70825 6.70837 11.4721 5.5206 13.4999 4.64504C15.5277 3.7706 17.6944 3.33337 19.9999 3.33337C22.3055 3.33337 24.4721 3.7706 26.4999 4.64504C28.5277 5.5206 30.2916 6.70837 31.7916 8.20837C33.2916 9.70837 34.4788 11.4723 35.3533 13.5C36.2288 15.5278 36.6666 17.6945 36.6666 20C36.6666 22.3056 36.2288 24.4723 35.3533 26.5C34.4788 28.5278 33.2916 30.2917 31.7916 31.7917C30.2916 33.2917 28.5277 34.4789 26.4999 35.3534C24.4721 36.2289 22.3055 36.6667 19.9999 36.6667Z" fill="#253EEF"/>
</svg>
