<svg width="32" height="32" viewBox="0 0 32 32" fill="none" xmlns="http://www.w3.org/2000/svg">
<path d="M16 16.0001C16.7334 16.0001 17.3614 15.7387 17.884 15.2161C18.4058 14.6943 18.6667 14.0667 18.6667 13.3334C18.6667 12.6001 18.4058 11.9721 17.884 11.4494C17.3614 10.9276 16.7334 10.6667 16 10.6667C15.2667 10.6667 14.6392 10.9276 14.1174 11.4494C13.5947 11.9721 13.3334 12.6001 13.3334 13.3334C13.3334 14.0667 13.5947 14.6943 14.1174 15.2161C14.6392 15.7387 15.2667 16.0001 16 16.0001ZM16 25.8001C18.7112 23.3112 20.7223 21.0499 22.0334 19.0161C23.3445 16.9832 24 15.1779 24 13.6001C24 11.1779 23.2276 9.1943 21.6827 7.64941C20.1387 6.10541 18.2445 5.33341 16 5.33341C13.7556 5.33341 11.8609 6.10541 10.316 7.64941C8.77204 9.1943 8.00004 11.1779 8.00004 13.6001C8.00004 15.1779 8.6556 16.9832 9.96671 19.0161C11.2778 21.0499 13.2889 23.3112 16 25.8001ZM16 29.3334C12.4223 26.289 9.75026 23.461 7.98404 20.8494C6.21693 18.2387 5.33337 15.8223 5.33337 13.6001C5.33337 10.2667 6.40582 7.61119 8.55071 5.63341C10.6947 3.65564 13.1778 2.66675 16 2.66675C18.8223 2.66675 21.3054 3.65564 23.4494 5.63341C25.5943 7.61119 26.6667 10.2667 26.6667 13.6001C26.6667 15.8223 25.7836 18.2387 24.0174 20.8494C22.2503 23.461 19.5778 26.289 16 29.3334Z" fill="white"/>
</svg>
