<svg width="60" height="60" viewBox="0 0 60 60" fill="none" xmlns="http://www.w3.org/2000/svg">
<path d="M40 22.5C55 22.5 55 32.5 55 32.5V37.5H40V32.5C40 32.5 40 28.275 37.125 24.5C36.7 23.925 36.175 23.375 35.625 22.85C36.925 22.65 38.35 22.5 40 22.5ZM5 32.5C5 32.5 5 22.5 20 22.5C35 22.5 35 32.5 35 32.5V37.5H5V32.5ZM22.5 42.5V47.5H37.5V42.5L45 50L37.5 57.5V52.5H22.5V57.5L15 50L22.5 42.5ZM20 2.5C15.85 2.5 12.5 5.85 12.5 10C12.5 14.15 15.85 17.5 20 17.5C24.15 17.5 27.5 14.15 27.5 10C27.5 5.85 24.15 2.5 20 2.5ZM40 2.5C35.85 2.5 32.5 5.85 32.5 10C32.5 14.15 35.85 17.5 40 17.5C44.15 17.5 47.5 14.15 47.5 10C47.5 5.85 44.15 2.5 40 2.5Z" fill="#0756CF"/>
</svg>
