<svg width="60" height="60" viewBox="0 0 60 60" fill="none" xmlns="http://www.w3.org/2000/svg">
<path d="M48.9114 9.84375H7.66138C6.79114 9.84375 5.95654 10.1895 5.34118 10.8048C4.72583 11.4202 4.38013 12.2548 4.38013 13.125V46.875C4.38013 47.7452 4.72583 48.5798 5.34118 49.1952C5.95654 49.8105 6.79114 50.1562 7.66138 50.1562H10.802C11.0666 50.1559 11.3257 50.081 11.5495 49.94C11.7734 49.7991 11.953 49.5978 12.0676 49.3594C13.0167 47.3526 14.5163 45.6566 16.3917 44.469C18.2672 43.2813 20.4415 42.6508 22.6614 42.6508C24.8813 42.6508 27.0555 43.2813 28.931 44.469C30.8065 45.6566 32.306 47.3526 33.2551 49.3594C33.3698 49.5978 33.5493 49.7991 33.7732 49.94C33.9971 50.081 34.2562 50.1559 34.5208 50.1562H48.9114C49.7816 50.1562 50.6162 49.8105 51.2316 49.1952C51.8469 48.5798 52.1926 47.7452 52.1926 46.875V13.125C52.1926 12.2548 51.8469 11.4202 51.2316 10.8048C50.6162 10.1895 49.7816 9.84375 48.9114 9.84375ZM16.5676 33.75C16.5676 32.5448 16.925 31.3666 17.5946 30.3645C18.2642 29.3624 19.2159 28.5813 20.3294 28.1201C21.4429 27.6589 22.6681 27.5382 23.8502 27.7733C25.0323 28.0085 26.1181 28.5888 26.9703 29.4411C27.8225 30.2933 28.4029 31.3791 28.638 32.5612C28.8732 33.7432 28.7525 34.9685 28.2913 36.082C27.83 37.1955 27.049 38.1472 26.0469 38.8168C25.0448 39.4864 23.8666 39.8438 22.6614 39.8438C21.0471 39.8376 19.5007 39.1936 18.3593 38.0521C17.2178 36.9106 16.5738 35.3643 16.5676 33.75ZM49.3801 46.875C49.3801 46.9993 49.3307 47.1185 49.2428 47.2065C49.1549 47.2944 49.0357 47.3438 48.9114 47.3438H35.3879C33.7472 44.4001 31.1388 42.1147 28.0051 40.875C29.5005 39.7534 30.6052 38.1898 31.1625 36.4056C31.7199 34.6213 31.7017 32.7069 31.1106 30.9336C30.5195 29.1603 29.3854 27.6179 27.869 26.5249C26.3525 25.4319 24.5306 24.8438 22.6614 24.8438C20.7921 24.8438 18.9702 25.4319 17.4538 26.5249C15.9374 27.6179 14.8033 29.1603 14.2122 30.9336C13.6211 32.7069 13.6029 34.6213 14.1602 36.4056C14.7176 38.1898 15.8222 39.7534 17.3176 40.875C14.1839 42.1147 11.5755 44.4001 9.93481 47.3438H7.66138C7.5389 47.338 7.42295 47.2868 7.33625 47.2001C7.24955 47.1134 7.19833 46.9975 7.19263 46.875V13.125C7.19263 13.0007 7.24201 12.8815 7.32992 12.7935C7.41783 12.7056 7.53706 12.6562 7.66138 12.6562H48.9114C49.0357 12.6562 49.1549 12.7056 49.2428 12.7935C49.3307 12.8815 49.3801 13.0007 49.3801 13.125V46.875ZM44.6926 18.75V41.25C44.6926 41.623 44.5445 41.9806 44.2807 42.2444C44.017 42.5081 43.6593 42.6562 43.2864 42.6562H39.5364C39.1634 42.6562 38.8057 42.5081 38.542 42.2444C38.2783 41.9806 38.1301 41.623 38.1301 41.25C38.1301 40.877 38.2783 40.5194 38.542 40.2556C38.8057 39.9919 39.1634 39.8438 39.5364 39.8438H41.8801V20.1562H14.6926V22.5C14.6926 22.873 14.5445 23.2306 14.2807 23.4944C14.017 23.7581 13.6593 23.9062 13.2864 23.9062C12.9134 23.9062 12.5557 23.7581 12.292 23.4944C12.0283 23.2306 11.8801 22.873 11.8801 22.5V18.75C11.8801 18.377 12.0283 18.0194 12.292 17.7556C12.5557 17.4919 12.9134 17.3438 13.2864 17.3438H43.2864C43.6593 17.3438 44.017 17.4919 44.2807 17.7556C44.5445 18.0194 44.6926 18.377 44.6926 18.75Z" fill="#253EEF"/>
</svg>
