<svg width="60" height="60" viewBox="0 0 60 60" fill="none" xmlns="http://www.w3.org/2000/svg">
<path opacity="0.2" d="M24.2108 22.0312L20.6483 33.0468L29.9999 39.8437L39.3515 33.0468L35.789 22.0312H24.2108ZM29.9999 44.9999L38.203 50.9531C32.9287 53.0156 27.071 53.0156 21.7968 50.9531L29.9999 44.9999ZM12.6093 44.2734C10.8271 42.1085 9.46754 39.6279 8.60145 36.9609C7.73923 34.2841 7.37384 31.4722 7.52333 28.664L15.7265 34.6406L12.6093 44.2734ZM11.039 17.8593C12.5615 15.4985 14.5085 13.4403 16.7811 11.789C19.0523 10.1408 21.6121 8.93248 24.328 8.22651L21.1874 17.8593H11.039ZM38.8124 17.8593L35.6718 8.22651C38.3877 8.93248 40.9475 10.1408 43.2186 11.789C45.4913 13.4403 47.4383 15.4985 48.9608 17.8593H38.8124ZM51.3983 36.9609C50.5322 39.6279 49.1727 42.1085 47.3905 44.2734L44.2733 34.6406L52.4765 28.664C52.6259 31.4722 52.2606 34.2841 51.3983 36.9609Z" fill="#0756CF"/>
<path d="M54.3282 28.4063C54.3399 28.4997 54.3399 28.5942 54.3282 28.6875C54.3516 29.1329 54.375 29.5547 54.375 30C54.3832 35.5541 52.4798 40.9417 48.9844 45.2579C48.903 45.4114 48.7914 45.547 48.6563 45.6563C46.0723 48.7451 42.7625 51.1449 39.0235 52.6407L38.7656 52.7344C33.1267 54.9222 26.8734 54.9222 21.2344 52.7344L20.9766 52.6407C17.2375 51.1449 13.9278 48.7451 11.3438 45.6563C11.2087 45.547 11.097 45.4114 11.0157 45.2579C7.5203 40.9417 5.61684 35.5541 5.62503 30C5.62503 29.5547 5.64846 29.1329 5.6719 28.6875C5.66014 28.5942 5.66014 28.4997 5.6719 28.4063C5.94221 24.3791 7.20646 20.4816 9.35159 17.0626C9.42368 16.9213 9.51007 16.7878 9.6094 16.6641C12.9037 11.6361 17.9351 7.99812 23.7422 6.44536H23.8125C27.8691 5.38293 32.1309 5.38293 36.1875 6.44536H36.2578C42.0649 7.99812 47.0963 11.6361 50.3907 16.6641C50.49 16.7878 50.5764 16.9213 50.6485 17.0626C52.7936 20.4816 54.0578 24.3791 54.3282 28.4063ZM9.49221 27.7735L16.0547 32.5547L19.1485 31.5469L22.125 22.3594L20.2266 19.7344H12.1172C10.6849 22.1989 9.79029 24.9386 9.49221 27.7735ZM12 40.0547L13.5235 35.3438L9.51565 32.4375C9.83551 35.1151 10.6797 37.7035 12 40.0547ZM25.5703 23.9063L22.8516 32.3204L30 37.5235L37.1485 32.3204L34.4297 23.9063H25.5703ZM39.7735 19.7344L37.875 22.3594L40.8516 31.5469L43.9453 32.5547L50.5078 27.7735C50.2098 24.9386 49.3152 22.1989 47.8828 19.7344H39.7735ZM50.4844 32.4375L46.4766 35.3438L48 40.0547C49.3203 37.7035 50.1645 35.1151 50.4844 32.4375ZM45.2813 43.8282L42.7735 36.1172L39.6797 35.1094L31.875 40.8047V44.0391L38.4375 48.8204C41.0431 47.6537 43.3746 45.953 45.2813 43.8282ZM34.0078 50.2266L30 47.3204L25.9922 50.2266C28.6377 50.7576 31.3623 50.7576 34.0078 50.2266ZM21.5625 48.8204L28.125 44.0391V40.8047L20.3203 35.1094L17.2266 36.1172L14.7188 43.8282C16.6254 45.953 18.957 47.6537 21.5625 48.8204ZM14.8828 15.9844H19.8282L21.3516 11.2735C18.9121 12.4126 16.7156 14.0122 14.8828 15.9844ZM25.7813 9.82036L23.2735 17.5313L25.1719 20.1563H34.8282L36.7266 17.5313L34.2188 9.82036C31.4376 9.22652 28.5624 9.22652 25.7813 9.82036ZM38.6485 11.2735L40.1719 15.9844H45.1172C43.2844 14.0122 41.0879 12.4126 38.6485 11.2735Z" fill="#0756CF"/>
</svg>
