<svg width="48" height="48" viewBox="0 0 48 48" fill="none" xmlns="http://www.w3.org/2000/svg">
<path d="M27.9999 33.1679C30.3109 32.156 32.156 30.3109 33.1679 27.9999M14.8319 27.9999C15.8439 30.3109 17.689 32.156 19.9999 33.1679M19.9999 14.8319C17.689 15.844 15.844 17.689 14.8319 19.9999M27.9999 14.8319C30.3109 15.8439 32.156 17.689 33.1679 19.9999M29.9999 40.9759C32.5307 40.0781 34.8292 38.6269 36.728 36.728C38.6269 34.8292 40.0781 32.5307 40.9759 29.9999M7.02393 29.9999C7.92178 32.5307 9.373 34.8292 11.2718 36.728C13.1706 38.6269 15.4692 40.0781 17.9999 40.9759M17.9999 7.02393C15.4692 7.92178 13.1706 9.373 11.2718 11.2718C9.373 13.1706 7.92178 15.4692 7.02393 17.9999M29.9999 7.02393C32.5307 7.92178 34.8292 9.373 36.728 11.2718C38.6269 13.1706 40.0781 15.4692 40.9759 17.9999" stroke="#0756CF" stroke-width="4" stroke-linecap="round"/>
<path d="M27 17H21L18 7L20 4H28L30 7L27 17ZM17 21V27L7 30L4 28V20L7 18L17 21ZM21 31H27L30 41L28 44H20L18 41L21 31ZM31 27V21L41 18C42.08 18.8 42.92 19.2 44 20V28C42.92 28.8 42.08 29.2 41 30L31 27Z" stroke="#0756CF" stroke-width="4" stroke-miterlimit="2" stroke-linejoin="round"/>
</svg>
